<?xml version="1.0" encoding="UTF-8"?><svg id="Layer_2" xmlns="http://www.w3.org/2000/svg" viewBox="0 0 7624.45 779.84"><defs><style>.cls-1{fill:#4999d4;}.cls-2{fill:#010101;}</style></defs><g id="Layer_1-2"><g><g><path class="cls-2" d="M1418.89,754.56c-69.15,0-134.97-30.08-171.8-78.5-.03-.04-.06-.08-.09-.12-24.04-32.35-40.31-79.43-43.51-125.94-2.79-40.62,2.87-100.69,45.71-156.24,.42-.54,.88-1.05,1.37-1.52,27.25-25.78,57.11-45.14,88.76-57.54,28.25-11.07,58.1-16.68,88.71-16.68,57.44,0,119.3,20.81,165.47,55.68,1.21,.91,2.25,2.02,3.08,3.29,6.63,10.13,8.88,20.85,6.52,31-.73,3.13-2.58,5.89-5.2,7.75l-57.6,40.77c-2.26,1.6-4.92,2.41-7.59,2.41-2.09,0-4.18-.5-6.1-1.5-4.37-2.29-7.09-6.84-7.03-11.78,.55-49.1-39.88-75.15-68.87-78.02-4.04-.28-8.05-.43-11.92-.43-94.68,0-118.36,87.98-124.04,140.6-4.1,57.92,11.63,110.58,43.19,144.49,25.19,27.06,59.32,41.36,98.7,41.36,21.13,0,43.74-4.09,67.21-12.16,2-.86,4.19-1.3,6.55-1.3,7.25,0,16.96,4.5,21.48,13.11,3.78,7.19,3.1,15.46-1.88,22.69-1.12,1.63-2.6,2.99-4.31,3.97-40.23,22.95-82.89,34.59-126.82,34.59Z"/><path class="cls-1" d="M1428.05,331.16c64.35,0,121.84,26.06,157.55,53.03,4.55,6.95,6.3,14.03,4.72,20.84l-57.6,40.77c.65-57.6-47.25-88.02-80.9-91.25-4.47-.32-8.81-.47-13.02-.47-107.33,0-131.52,100.25-137.13,152.56-7.98,111.24,52.31,200.15,154.98,200.15,22.17,0,46.32-4.15,72.19-13.11,.39-.23,.93-.34,1.57-.34,4.76,0,15.05,6.11,8.78,15.23-40.48,23.1-81.73,32.86-120.31,32.86-68.93,0-129.31-31.2-161.34-73.31-40.65-54.69-69.23-173.89,2.06-266.32,55.07-52.11,114.19-70.63,168.44-70.62m0-26.27c-32.26,0-63.72,5.91-93.5,17.58-33.23,13.02-64.52,33.28-93,60.23-.99,.94-1.91,1.95-2.75,3.04-45.36,58.81-51.37,122.27-48.42,165.16,3.36,48.92,20.59,98.59,46.07,132.88,.06,.08,.12,.15,.17,.23,39.25,51.62,109.09,83.68,182.25,83.68,22.17,0,44.42-2.91,66.15-8.64,23.06-6.08,45.66-15.4,67.18-27.68,3.44-1.96,6.39-4.67,8.63-7.93,7.71-11.22,8.71-24.77,2.68-36.25-6.24-11.85-19.85-20.13-33.11-20.13-3.88,0-7.65,.72-11.12,2.12-21.99,7.53-43.06,11.34-62.64,11.34-35.64,0-66.45-12.86-89.09-37.18-29.04-31.2-43.51-80.15-39.72-134.36,2.57-23.62,9.24-57.23,26.39-84.11,19.12-29.96,46.78-44.53,84.57-44.53,3.5,0,7.13,.13,10.8,.38,9.98,1.03,24.97,6.33,37.49,18.16,13.05,12.33,19.57,28.02,19.36,46.62-.11,9.87,5.32,18.97,14.07,23.56,3.84,2.01,8.03,3.01,12.2,3.01,5.34,0,10.66-1.63,15.18-4.83l57.6-40.77c5.25-3.72,8.95-9.23,10.41-15.49,2.23-9.57,2.59-24.49-8.32-41.17-1.66-2.53-3.74-4.76-6.15-6.58-21.63-16.33-47.5-30.28-74.8-40.32-32.5-11.95-65.67-18.01-98.58-18.01h0Z"/></g><g><path d="M1643.93,754.56c-7.25,0-13.13-5.88-13.13-13.13,0-3.35,.66-4.6,3.83-10.58,2.86-5.39,7.76-14.5,14.58-27.13V303.04l-22.99-26.42c-3.38-3.88-4.18-9.38-2.05-14.07s6.81-7.69,11.95-7.69h91.49c7.25,0,13.13,5.88,13.13,13.13v473.42c0,7.25-5.88,13.13-13.13,13.13h-83.68Z"/><path class="cls-1" d="M1727.61,268.01v473.42h-83.68s0-.35,18.41-34.38V298.13l-26.22-30.12h91.49m0-26.27h-91.49c-10.29,0-19.64,6.01-23.91,15.38-4.27,9.37-2.67,20.37,4.09,28.13l19.77,22.71v392.43c-6.02,11.15-10.4,19.31-13.05,24.3-3.34,6.31-5.36,10.11-5.36,16.73,0,14.51,11.76,26.27,26.27,26.27h83.68c14.51,0,26.27-11.76,26.27-26.27V268.01c0-14.51-11.76-26.27-26.27-26.27h0Z"/></g><g><path d="M2037.23,754.45c-59.97,0-118.51-22.09-160.62-60.6-26.68-24.4-46.57-61.62-56.03-104.81-9.45-43.16-7.74-89.28,4.8-129.86,11.34-36.69,30.59-67.39,57.23-91.26,29.77-26.69,67.47-43.43,112.03-49.77,.36-.05,.73-.09,1.09-.11,8.38-.48,16.63-.73,24.53-.73,151.13,0,178.74,88.86,192.01,131.56,1.08,3.48,2.1,6.77,3.06,9.59,1.34,3.93,.74,8.26-1.61,11.67-2.35,3.42-6.18,5.52-10.32,5.68-32.85,1.24-98.71,8.04-161.04,18.64-93.3,15.85-113.38,28.89-117.08,32.1-1.68,50.37,14.05,95.48,44.43,127.23,26.23,27.42,61.97,42.52,100.65,42.52s79.86-14.84,119.35-42.92c2.29-1.63,4.96-2.43,7.61-2.43,3.33,0,6.65,1.26,9.18,3.73,4.54,4.43,5.27,11.48,1.72,16.75-35.07,51.99-98.99,83.02-170.98,83.02Zm-13.24-379.43c-11.3,0-22.73,2.4-34,7.13l-1.39,.58c-9.76,4.05-35.69,14.8-49.2,42.75-7.6,15.72-7.95,33.64-7.08,45.12,16.46-2.37,47.78-9.6,67.9-14.24,9.42-2.18,17.57-4.06,23.05-5.21,18.23-4.09,34.16-7.03,46.97-9.4,17.63-3.26,33.35-6.16,41.04-9.8-8.26-29.25-32.82-47.95-73.14-55.62-4.61-.88-9.38-1.32-14.16-1.32Z"/><path class="cls-1" d="M2020.27,330.46c153.53,.01,169.73,94.32,182.64,132.24-73.64,2.79-287.3,31.24-290.64,60.81-4.73,106.31,64.18,185.93,158.1,185.93,39.15,0,82.65-13.84,126.96-45.35-34.44,51.05-96.17,77.24-160.09,77.24-54.12,0-109.8-18.79-151.75-57.15-91.49-83.68-88.14-324.67,111.01-353,8.28-.48,16.18-.71,23.77-.71m-96.09,154.07c16.73,0,80.79-16.1,101.89-20.52,58.02-13.02,89.63-13.76,99.86-26.96-7.81-43.33-41.81-65.32-85.31-73.59-5.52-1.05-11.07-1.55-16.62-1.55-13.35,0-26.62,2.92-39.09,8.16-9.44,3.97-40.93,15.82-57.32,49.71-13.67,28.28-7.33,61.34-6.77,64.31,.66,.3,1.81,.44,3.36,.44m273.15,179.56h0m-177.06-359.9h-.03c-8.13,0-16.63,.25-25.26,.75-.73,.04-1.46,.12-2.18,.22-47.18,6.71-87.2,24.54-118.94,52.99-14.51,13.01-27.16,28.2-37.6,45.16-9.78,15.89-17.65,33.39-23.41,52.01-13.2,42.71-15.01,91.2-5.08,136.54,10.03,45.81,31.33,85.48,59.99,111.69,22.93,20.97,49.85,37.21,80.01,48.25,28.62,10.48,58.72,15.79,89.47,15.79,36.08,0,71.42-7.58,102.2-21.93,32.82-15.3,60.27-38.29,79.4-66.49,3-4.27,4.76-9.47,4.76-15.08,0-14.36-11.51-26.02-25.81-26.27-.15,0-.31,0-.46,0-.54,0-1.09,.02-1.63,.05,0,0,0,0,0,0,0,0,0,0,0,0-5.14,.32-9.89,2.12-13.81,4.98-37.18,26.38-75.73,40.32-111.5,40.32s-67.09-13.3-91.16-38.46c-26.52-27.72-40.88-66.78-40.91-110.76,9.58-4.69,37.63-15.23,112.64-27.61,59.84-9.88,122.25-16.23,152.96-17.39,8.29-.31,15.95-4.53,20.65-11.36,4.7-6.84,5.9-15.49,3.23-23.35-.9-2.65-1.9-5.86-2.95-9.25-7.17-23.08-18.01-57.96-48.21-87.87-16.72-16.56-37.4-29.4-61.48-38.17-26.89-9.79-58.81-14.76-94.86-14.76h0Zm-74.88,150.79c.55-7.69,2.16-16.15,5.85-23.77,11.34-23.44,33.11-32.48,42.41-36.33,.52-.22,1.01-.42,1.45-.6,9.64-4.05,19.36-6.11,28.91-6.11,3.97,0,7.9,.37,11.71,1.09,35.75,6.8,51.26,21.71,58.31,34.41-6.97,1.65-15.93,3.3-26.15,5.19-12.9,2.38-28.94,5.35-47.37,9.48-5.61,1.18-13.77,3.06-23.21,5.24-12.14,2.8-34.69,8.01-51.89,11.41h0Z"/></g><g><path d="M1064.16,757.29c-4.01,0-7.8-1.83-10.29-4.97-2.49-3.14-3.41-7.25-2.5-11.15,.71-3.03,1.47-6.23,2.27-9.58,10.64-44.58,28.43-119.14,19.48-223.67-9.66-54.34-39.09-95.21-78.85-109.52-13.47-3.49-26.74-5.26-39.46-5.26-37.16,0-69.69,14.82-96.75,44.07-3.13,26.68-2.72,199.77-1.68,306.83,.03,3.51-1.33,6.88-3.8,9.37s-5.83,3.89-9.33,3.89h-188.55c-6.54,0-12.09-4.82-13.01-11.3-4.63-32.77-28.52-80.96-61.58-147.65-18.78-37.88-39.94-80.56-62.63-130.43-41.81,4.63-112.82,36.66-188.98,85.61-78.4,50.39-142.65,105.88-163.99,141.59-7.63,16.14-11.68,33.46-11.42,48.82,.06,3.52-1.3,6.92-3.77,9.43-2.47,2.51-5.84,3.93-9.37,3.93H26.27c-5.03,0-9.62-2.88-11.82-7.41-2.2-4.53-1.61-9.92,1.51-13.87,4.35-5.51,9.25-10.62,14-15.56,7.72-8.04,15.7-16.36,21.85-26.92,107.06-183.72,227.42-426.63,272.73-518.07,5.68-11.46,10.34-20.86,13.83-27.86,3.57-7.15,5.47-14.35,5.64-21.4,.6-24.89-6.34-45.05-42.18-62.52-5.5-2.68-8.42-8.8-7.04-14.76,1.38-5.96,6.68-10.18,12.8-10.18h132.68c3.67-.01,7.18,1.53,9.67,4.23,14.43,15.69,60.79,118.52,135.24,285,40.28,90.07,81.93,183.2,117.09,257.79,21.97,41.53,38.82,69.12,52.77,85.97,3.69-103.12-.27-253.4-.79-272.15-3.13-8.95-11.97-29-23.59-36.93-4.74-3.23-6.83-9.16-5.17-14.65s6.69-9.27,12.43-9.33c0,0,102.71-1.14,102.76-1.14,3.46,0,6.78,1.36,9.24,3.8,2.49,2.47,3.9,5.83,3.9,9.34v15.48c2.75-.17,5.91-.51,9.43-1.02,48.89-22.09,94.78-33.29,136.42-33.29,54.93,0,99.95,20.31,130.19,58.73,25.81,32.79,40.92,78.4,44.9,135.55,4.24,60.82-4.13,135.22-24.9,221.12-1.43,5.9-6.7,10.05-12.77,10.05h-72.92ZM386.42,217.61c-8.68,9.83-27.29,45.61-48.53,86.44-11.17,21.46-23.82,45.79-38.89,74.07-11.45,21.5-22.22,41.16-32.62,60.18-26.47,48.38-48.68,88.97-57.1,114.91,2.6-1.93,5.31-3.98,8-6.01,24.99-18.84,66.81-50.37,129.47-84.7,84.87-46.49,116.05-59.15,129.36-64.56,1.51-.61,2.8-1.14,3.89-1.6-3.36-13.47-26.35-55.65-45.12-90.1-10.72-19.67-19.19-35.83-25.99-48.82-9.44-18.03-17.79-33.96-22.46-39.84Z"/><path class="cls-1" d="M440.26,51.86c22.44,24.39,159.58,347.46,250.25,539.77,38.86,73.51,59.12,98.22,76.37,108.73,6.16-108.93,.43-303.1,.43-303.1,0,0-10.28-32.52-29.26-45.46l102.61-1.14v27.29s1.69,1.45,9.28,1.45c3.92,0,9.4-.39,17.04-1.56,46.26-21.11,91.75-32.87,132.67-32.87,125.09,0,207.33,109.99,137.43,399.19h-72.92c10.35-44.22,31.93-123.18,22.01-237.95-9.06-51.78-37.97-102.69-88.02-120.38-14.35-3.76-28.87-5.83-43.33-5.83-38.6,0-76.64,14.72-108.97,51.13-5.48,15.67-2.59,313.03-2.59,313.03h-188.55c-7.77-55.01-63.43-144.54-129.01-289.94-94.49,1.73-326.03,155.4-372.78,234.72-8.47,17.72-13.25,37.17-12.94,55.23H26.27c10.84-13.73,25.96-25.25,36.89-44.01C183.29,493.99,317.5,218.77,350.12,153.47c4.21-8.43,6.79-17.53,7.02-26.95,.64-26.55-6.44-53.63-49.56-74.65h132.68M195.38,576.89c11.18,0,56.53-47.45,157.66-102.85,116.78-63.97,129.79-62.85,138.35-68.8,7.07-7.23-2.23-26.78-45-105.25-39.91-73.23-48.11-97.04-59.82-97.03-.84,0-1.7,.12-2.58,.36-13.28,3.51-38.2,59.05-96.59,168.64-53.14,99.74-96.51,169.4-94.84,201.39,.17,2.42,1.09,3.55,2.81,3.55M440.26,25.59h-132.68c-12.23,.01-22.84,8.46-25.59,20.38-2.75,11.92,3.09,24.16,14.09,29.52,32.88,16.03,35.23,32.98,34.8,50.4-.12,5.1-1.56,10.44-4.26,15.85-3.51,7.02-8.07,16.24-13.85,27.9-45.26,91.34-165.47,333.95-272.3,517.29-5.36,9.21-12.46,16.6-19.98,24.44-4.96,5.17-10.09,10.52-14.83,16.52-6.24,7.9-7.41,18.67-3.02,27.73,4.39,9.06,13.57,14.81,23.64,14.81h113.69c7.05,0,13.8-2.83,18.73-7.85,4.94-5.02,7.65-11.82,7.53-18.87-.23-13.2,3.28-28.22,9.88-42.4,20.42-33.62,84.24-88.37,159.49-136.73,38.11-24.49,75.88-45.28,109.23-60.11,25.12-11.17,47.44-18.74,64.82-22.07,21.21,46.2,41,86.11,58.69,121.78,32.52,65.59,56.02,112.98,60.35,143.65,1.83,12.96,12.92,22.6,26.01,22.6h188.55c7.01,0,13.73-2.8,18.66-7.78,4.93-4.98,7.67-11.73,7.6-18.74,0-.7-.69-71.3-.75-144.51-.1-107.52,1.17-144.1,2.02-156.5,23.84-24.3,52.08-36.62,84.03-36.62,11.42,0,23.39,1.58,35.57,4.68,34.86,12.84,60.83,49.59,69.71,98.68,8.65,102.11-8.79,175.18-19.22,218.9-.81,3.38-1.57,6.59-2.29,9.64-1.83,7.81,.01,16.03,4.99,22.31,4.98,6.28,12.56,9.95,20.58,9.95h72.92c12.13,0,22.68-8.31,25.53-20.1,21.08-87.22,29.57-162.96,25.24-225.12-4.17-59.83-20.22-107.86-47.68-142.76-32.82-41.7-81.41-63.74-140.51-63.74-40.91,0-85.52,10.24-132.76,30.46-.37-6.47-3.12-12.6-7.75-17.18-4.92-4.87-11.56-7.59-18.47-7.59-.1,0-.19,0-.29,0l-102.61,1.14c-11.47,.13-21.53,7.68-24.85,18.66-3.32,10.98,.87,22.85,10.35,29.31,6.9,4.7,14.22,18.71,17.92,28.55,.61,22.5,3.43,134.84,1.78,229.18-8.56-13.94-18.16-30.99-28.93-51.34-35.08-74.43-76.65-167.38-116.85-257.29-31.47-70.36-61.19-136.83-84.96-188-37.52-80.78-46.56-93.95-52.61-100.53-4.97-5.41-11.99-8.48-19.33-8.48h0Zm-199.09,487.67c9.97-19.75,22.6-42.84,36.72-68.64,10.42-19.05,21.2-38.75,32.69-60.31,15.1-28.34,27.77-52.7,38.95-74.19,13.33-25.62,23.86-45.86,32.21-60.71,1.52-2.71,2.91-5.11,4.16-7.25,3.42,6.3,7.33,13.75,11.32,21.39,6.82,13.03,15.32,29.24,26.09,49.01,14.99,27.51,26.51,48.95,34.03,64.17,2.52,5.1,4.4,9.15,5.81,12.35-17.31,7.27-50.3,22.23-122.75,61.92-41.93,22.97-74.61,44.67-99.25,62.25h0Z"/></g><g><path d="M2595.6,757.29c-4.01,0-7.8-1.83-10.29-4.97-2.49-3.14-3.41-7.25-2.5-11.15,.71-3.03,1.47-6.22,2.27-9.58,10.64-44.58,28.43-119.14,19.49-223.67-9.66-54.34-39.09-95.21-78.85-109.52-13.47-3.49-26.74-5.26-39.46-5.26-37.16,0-69.69,14.82-96.75,44.07-3.13,26.68-2.72,199.77-1.68,306.83,.03,3.51-1.33,6.88-3.8,9.37s-5.83,3.89-9.33,3.89h-102.61c-5.3,0-10.09-3.19-12.13-8.09-2.04-4.9-.93-10.54,2.81-14.3,3.34-3.36,6.14-5.98,8.61-8.29,9.13-8.54,10.64-9.96,13.88-27.79,5.66-101.48,.99-278.77,.43-299.24-3.13-8.95-11.97-29-23.59-36.93-4.74-3.23-6.83-9.16-5.17-14.65s6.69-9.27,12.43-9.33c0,0,102.71-1.14,102.76-1.14,3.46,0,6.78,1.36,9.24,3.8,2.49,2.47,3.9,5.83,3.9,9.34v15.48c2.75-.17,5.91-.51,9.43-1.02,48.89-22.09,94.78-33.29,136.42-33.29,54.93,0,99.95,20.31,130.19,58.73,25.81,32.79,40.92,78.4,44.9,135.55,4.24,60.82-4.13,135.22-24.9,221.12-1.42,5.9-6.7,10.05-12.77,10.05h-72.92Z"/><path class="cls-1" d="M2531.08,344.97c125.09,0,207.33,109.99,137.43,399.19h-72.92c10.35-44.22,31.93-123.18,22.01-237.95-9.06-51.78-37.97-102.69-88.02-120.38-14.35-3.76-28.87-5.83-43.33-5.83-38.6,0-76.64,14.72-108.97,51.13-5.48,15.67-2.59,313.03-2.59,313.03h-102.61c17.11-17.22,21.2-15.73,26.24-43.79,6.16-108.93,.43-303.1,.43-303.1,0,0-10.28-32.52-29.26-45.46l102.61-1.14v27.29s1.69,1.45,9.28,1.45c3.92,0,9.4-.39,17.04-1.56,46.26-21.11,91.75-32.87,132.67-32.87m0-26.27c-40.91,0-85.52,10.24-132.76,30.46-.37-6.47-3.12-12.6-7.75-17.18-4.92-4.87-11.56-7.59-18.47-7.59-.1,0-.19,0-.29,0l-102.61,1.14c-11.47,.13-21.53,7.68-24.85,18.66-3.32,10.98,.87,22.85,10.35,29.31,6.9,4.7,14.22,18.71,17.92,28.55,.76,28.15,4.98,196.99-.42,295.2-1.61,8.59-2.79,11.99-3.52,13.31-.63,1.15-2.69,3.1-6.27,6.45-2.42,2.27-5.44,5.09-8.95,8.62-7.48,7.53-9.7,18.81-5.62,28.61,4.08,9.8,13.64,16.18,24.25,16.18h102.61c7.01,0,13.73-2.8,18.66-7.78,4.93-4.98,7.67-11.73,7.6-18.74,0-.7-.69-71.3-.75-144.51-.1-107.52,1.17-144.1,2.02-156.5,23.84-24.3,52.08-36.62,84.03-36.62,11.42,0,23.39,1.57,35.57,4.68,34.86,12.84,60.83,49.59,69.71,98.68,8.65,102.11-8.79,175.17-19.22,218.9-.81,3.38-1.57,6.59-2.29,9.64-1.83,7.81,.01,16.03,4.99,22.31,4.98,6.28,12.56,9.95,20.58,9.95h72.92c12.13,0,22.68-8.31,25.53-20.1,21.08-87.22,29.57-162.96,25.24-225.12-4.17-59.83-20.22-107.86-47.68-142.76-32.82-41.7-81.41-63.74-140.51-63.74h0Z"/></g><g><path d="M2938.04,750.4c-20.6,0-51.04-7.57-79.44-19.76-.38-.16-.76-.35-1.12-.55-44.55-24.36-71.57-66.95-74.13-116.84-.01-.21-.02-.43-.02-.64l-.53-225.23h-44.91c-7.25,0-13.13-5.88-13.13-13.13v-57.89c0-5.94,3.99-11.14,9.72-12.68,1.13-.31,2.28-.45,3.41-.45,4.6,0,8.97,2.42,11.36,6.54,2.3,3.9,10.74,15.27,19.74,17.82h13.97v-125.43c-3.83-8.82-14.34-27.33-28.99-33.61-5.71-2.45-8.92-8.56-7.71-14.65,1.22-6.09,6.54-10.5,12.75-10.56,0,0,77.2-.78,77.25-.78,2.58,0,5.09,.76,7.24,2.18,24.98,16.51,35.67,36.09,36.11,36.92,1.01,1.88,1.55,3.98,1.56,6.12l.97,139.62h87.25c5.07,0,9.69,2.92,11.87,7.5s1.52,10.01-1.69,13.94l-27.52,33.72c-2.49,3.06-6.23,4.83-10.18,4.83h-60.13v240.2c.14,1.68,1.48,13.93,10.53,30.17,12.96,23.25,35.86,44.14,66.22,60.4,2.58,1.38,4.63,3.59,5.81,6.28,2.44,5.54,2.04,11.48-1.1,16.29-5.65,8.67-17.07,9.68-25.17,9.68Z"/><path class="cls-1" d="M2836.26,155.69c22.5,14.88,31.78,32.17,31.78,32.17l1.04,148.76,3.07,3.9h97.25l-27.52,33.72h-71.41l-1.86,3.1v250.66s2.23,58.08,83.68,101.72c2.2,4.98-3.53,7.54-14.25,7.54-16.5,0-44.84-6.06-74.26-18.69-33.85-18.51-64.65-54.02-67.31-105.99l-.56-235.6-2.23-2.73h-55.79v-57.89s12.09,20.83,29.57,24.36h28.64V199.57s-12.22-32.51-36.95-43.11l77.12-.78m133.14,184.84h0m-133.15-211.11c-.09,0-.18,0-.27,0l-77.12,.78c-12.42,.12-23.06,8.93-25.49,21.12-2.44,12.18,3.99,24.4,15.41,29.3,9.02,3.87,17.06,16.3,21.03,24.43v108.41c-3-2.22-6.88-6.46-9.26-10.36-4.71-8.37-13.42-13.22-22.66-13.22-2.23,0-4.5,.28-6.75,.87-11.57,3.01-19.54,13.65-19.54,25.61v57.89c0,14.51,11.76,26.27,26.27,26.27h31.8l.5,212.12c0,.43,.01,.86,.03,1.29,1.5,29.23,10.45,55.86,26.61,79.17,13.75,19.83,32.54,36.61,54.34,48.53,.73,.4,1.48,.76,2.24,1.09,29.93,12.84,62.35,20.82,84.62,20.82,6.43,0,25.98,0,36.17-15.64,5.53-8.48,6.32-19.23,2.11-28.77-2.37-5.36-6.46-9.78-11.63-12.55-27.46-14.71-48.25-33.3-60.12-53.77-7.81-13.46-9.43-23.74-9.69-25.89v-226.39h47c7.89,0,15.36-3.55,20.35-9.66l27.33-33.48c3.82-4.56,6.12-10.44,6.12-16.85,0-14.51-11.76-26.27-26.27-26.27h-74.21l-.88-126.58c-.03-4.27-1.1-8.48-3.12-12.24-1.27-2.37-13.2-23.65-40.44-41.66-4.3-2.84-9.34-4.36-14.49-4.36h0Z"/></g></g><g><g><path class="cls-2" d="M6381.19,754.53c-69.15,0-134.97-30.08-171.8-78.5-.03-.04-.06-.08-.09-.12-24.05-32.35-40.31-79.43-43.51-125.94-2.79-40.62,2.87-100.69,45.71-156.24,.42-.54,.88-1.05,1.37-1.52,27.25-25.78,57.11-45.14,88.76-57.54,28.25-11.07,58.09-16.68,88.71-16.68,57.44,0,119.3,20.81,165.47,55.68,1.21,.91,2.25,2.02,3.08,3.29,6.63,10.13,8.88,20.85,6.52,31-.73,3.13-2.58,5.89-5.2,7.75l-57.6,40.77c-2.26,1.6-4.92,2.41-7.59,2.41-2.09,0-4.18-.5-6.1-1.5-4.37-2.29-7.09-6.84-7.03-11.78,.55-49.1-39.88-75.15-68.87-78.02-4.04-.28-8.05-.43-11.92-.43-94.68,0-118.36,87.98-124.04,140.6-4.11,57.92,11.63,110.58,43.19,144.49,25.19,27.06,59.32,41.37,98.7,41.36,21.13,0,43.74-4.09,67.21-12.16,2-.86,4.19-1.3,6.55-1.3,7.25,0,16.96,4.5,21.48,13.11,3.78,7.19,3.1,15.46-1.88,22.69-1.12,1.63-2.6,2.99-4.31,3.97-40.23,22.95-82.89,34.59-126.82,34.59Z"/><path class="cls-1" d="M6390.35,331.13c64.35,0,121.84,26.06,157.55,53.03,4.55,6.95,6.3,14.03,4.72,20.84l-57.6,40.77c.65-57.6-47.25-88.02-80.9-91.25-4.47-.32-8.81-.47-13.02-.47-107.33,0-131.52,100.25-137.13,152.56-7.98,111.24,52.31,200.15,154.98,200.15,22.17,0,46.32-4.15,72.19-13.11,.39-.23,.93-.34,1.57-.34,4.76,0,15.05,6.11,8.78,15.23-40.48,23.1-81.73,32.86-120.31,32.86-68.93,0-129.31-31.2-161.34-73.31-40.65-54.69-69.23-173.89,2.06-266.32,55.07-52.11,114.19-70.63,168.44-70.62m0-26.27c-32.26,0-63.72,5.91-93.5,17.58-33.23,13.02-64.52,33.28-93,60.23-.99,.94-1.91,1.95-2.75,3.04-45.36,58.81-51.37,122.27-48.42,165.16,3.36,48.92,20.59,98.59,46.07,132.88,.06,.08,.12,.15,.17,.23,39.25,51.62,109.09,83.68,182.25,83.68,22.17,0,44.42-2.91,66.15-8.64,23.06-6.08,45.66-15.4,67.18-27.68,3.44-1.96,6.39-4.67,8.63-7.93,7.71-11.22,8.72-24.77,2.68-36.25-6.24-11.85-19.85-20.13-33.11-20.13-3.88,0-7.65,.72-11.12,2.12-21.99,7.53-43.06,11.34-62.64,11.34-35.64,0-66.45-12.86-89.09-37.18-29.04-31.2-43.51-80.15-39.72-134.36,2.57-23.62,9.24-57.23,26.39-84.11,19.12-29.96,46.78-44.53,84.57-44.53,3.5,0,7.13,.13,10.8,.38,9.98,1.03,24.97,6.33,37.49,18.16,13.05,12.33,19.57,28.02,19.36,46.62-.11,9.87,5.32,18.97,14.07,23.56,3.83,2.01,8.02,3.01,12.2,3.01,5.34,0,10.66-1.63,15.18-4.83l57.6-40.77c5.25-3.72,8.95-9.23,10.41-15.49,2.23-9.57,2.59-24.49-8.32-41.17-1.66-2.53-3.74-4.76-6.15-6.58-21.63-16.33-47.5-30.28-74.8-40.32-32.5-11.95-65.67-18.01-98.58-18.01h0Z"/></g><g><path d="M5991.66,754.93c-7.25,0-13.13-5.88-13.13-13.13,0-3.35,.66-4.6,3.83-10.58,2.86-5.39,7.76-14.5,14.58-27.12V303.42l-22.99-26.42c-3.38-3.88-4.18-9.38-2.05-14.07,2.13-4.69,6.81-7.69,11.95-7.69h91.49c7.25,0,13.13,5.88,13.13,13.13v473.42c0,7.25-5.88,13.13-13.13,13.13h-83.68Z"/><path class="cls-1" d="M6075.33,268.38v473.42h-83.68s0-.35,18.41-34.38V298.5l-26.22-30.12h91.49m0-26.27h-91.49c-10.29,0-19.64,6.01-23.91,15.38-4.27,9.37-2.67,20.37,4.09,28.13l19.77,22.71v392.43c-6.02,11.15-10.4,19.31-13.05,24.3-3.34,6.31-5.36,10.11-5.36,16.73,0,14.51,11.76,26.27,26.27,26.27h83.68c14.51,0,26.27-11.76,26.27-26.27V268.38c0-14.51-11.76-26.27-26.27-26.27h0Z"/></g><g><path d="M7021.66,754.83c-59.97,0-118.51-22.09-160.62-60.6-26.68-24.4-46.57-61.62-56.03-104.81-9.45-43.16-7.74-89.28,4.8-129.86,11.34-36.69,30.59-67.39,57.23-91.26,29.77-26.69,67.47-43.43,112.03-49.77,.36-.05,.73-.09,1.09-.11,8.38-.48,16.63-.73,24.53-.73,151.13,0,178.74,88.86,192.01,131.56,1.08,3.48,2.1,6.77,3.06,9.59,1.34,3.93,.74,8.26-1.61,11.67-2.35,3.42-6.18,5.52-10.32,5.68-32.85,1.24-98.71,8.04-161.04,18.64-93.3,15.85-113.38,28.89-117.08,32.1-1.68,50.37,14.05,95.48,44.43,127.23,26.23,27.42,61.97,42.52,100.65,42.52s79.86-14.84,119.35-42.92c2.29-1.63,4.96-2.43,7.61-2.43,3.33,0,6.64,1.26,9.18,3.73,4.54,4.43,5.27,11.48,1.72,16.75-35.07,51.99-98.99,83.02-170.98,83.02Zm-13.24-379.43c-11.3,0-22.73,2.4-34,7.13l-1.39,.58c-9.76,4.05-35.69,14.8-49.2,42.75-7.6,15.72-7.95,33.64-7.08,45.12,16.46-2.37,47.79-9.6,67.91-14.24,9.42-2.17,17.56-4.05,23.04-5.2,18.23-4.09,34.17-7.03,46.97-9.4,17.63-3.26,33.35-6.16,41.04-9.8-8.26-29.25-32.82-47.95-73.14-55.62-4.61-.88-9.38-1.32-14.16-1.32Z"/><path class="cls-1" d="M7004.7,330.83c153.53,.01,169.73,94.32,182.64,132.24-73.64,2.79-287.3,31.24-290.64,60.81-4.73,106.31,64.18,185.93,158.1,185.93,39.15,0,82.65-13.84,126.96-45.35-34.44,51.05-96.17,77.23-160.09,77.23-54.12,0-109.8-18.79-151.75-57.15-91.49-83.68-88.14-324.67,111.01-353,8.28-.48,16.18-.71,23.77-.71m-96.09,154.07c16.73,0,80.79-16.1,101.89-20.52,58.02-13.02,89.63-13.76,99.86-26.96-7.81-43.33-41.81-65.32-85.31-73.59-5.52-1.05-11.07-1.55-16.62-1.55-13.35,0-26.62,2.92-39.08,8.16-9.44,3.97-40.93,15.82-57.32,49.71-13.67,28.28-7.33,61.34-6.77,64.31,.66,.3,1.81,.44,3.36,.44m273.15,179.56h0m-177.06-359.9h-.03c-8.13,0-16.63,.25-25.26,.75-.73,.04-1.46,.12-2.18,.22-47.18,6.71-87.2,24.54-118.94,52.99-14.51,13.01-27.16,28.2-37.6,45.16-9.78,15.89-17.65,33.39-23.41,52.01-13.2,42.71-15.01,91.2-5.08,136.54,10.03,45.81,31.33,85.48,59.99,111.69,22.93,20.97,49.85,37.21,80.01,48.25,28.62,10.48,58.72,15.79,89.47,15.79,36.08,0,71.42-7.58,102.2-21.93,32.82-15.3,60.27-38.29,79.4-66.49,3-4.27,4.76-9.47,4.76-15.08,0-14.36-11.52-26.02-25.81-26.27-.16,0-.31,0-.47,0-.54,0-1.09,.02-1.63,.05h-.01s0,0,0,0c-5.15,.32-9.89,2.12-13.82,4.98-37.18,26.38-75.72,40.32-111.49,40.32s-67.09-13.3-91.16-38.46c-26.52-27.72-40.88-66.78-40.91-110.76,9.58-4.69,37.63-15.23,112.64-27.61,59.84-9.88,122.25-16.23,152.96-17.39,8.29-.31,15.95-4.53,20.65-11.36,4.7-6.84,5.9-15.49,3.23-23.35-.9-2.65-1.9-5.86-2.95-9.25-7.17-23.08-18.01-57.96-48.21-87.87-16.72-16.56-37.4-29.4-61.48-38.17-26.89-9.79-58.81-14.76-94.86-14.76h0Zm-74.88,150.79c.55-7.69,2.16-16.15,5.84-23.77,11.34-23.44,33.11-32.48,42.41-36.33,.52-.22,1.01-.42,1.44-.6,9.64-4.05,19.36-6.11,28.9-6.11,3.97,0,7.9,.37,11.71,1.09,35.75,6.8,51.26,21.71,58.31,34.41-6.97,1.65-15.93,3.3-26.15,5.19-12.9,2.38-28.94,5.35-47.37,9.48-5.61,1.18-13.77,3.06-23.21,5.24-12.15,2.8-34.69,8.01-51.89,11.41h0Z"/></g><g><path d="M5769.03,757.66c-4.01,0-7.8-1.83-10.29-4.97-2.49-3.14-3.41-7.25-2.5-11.15,.71-3.03,1.47-6.23,2.27-9.59,10.64-44.58,28.43-119.14,19.48-223.66-9.66-54.34-39.09-95.21-78.85-109.52-13.47-3.49-26.74-5.26-39.46-5.26-37.16,0-69.69,14.82-96.75,44.07-3.13,26.68-2.72,199.77-1.68,306.83,.03,3.51-1.33,6.88-3.8,9.37s-5.83,3.89-9.33,3.89h-102.61c-5.3,0-10.09-3.19-12.13-8.09-2.04-4.9-.93-10.54,2.81-14.3,3.34-3.36,6.14-5.98,8.61-8.29,9.13-8.54,10.65-9.96,13.88-27.79,5.67-101.48,1-278.77,.43-299.24-3.13-8.95-11.97-29-23.59-36.93-4.74-3.23-6.83-9.16-5.17-14.65,1.66-5.49,6.69-9.27,12.43-9.33,0,0,102.71-1.14,102.76-1.14,3.46,0,6.78,1.36,9.24,3.8,2.49,2.47,3.9,5.83,3.9,9.34v15.48c2.75-.17,5.91-.51,9.43-1.02,48.89-22.09,94.78-33.29,136.42-33.29,54.93,0,99.95,20.31,130.19,58.73,25.81,32.79,40.92,78.4,44.9,135.55,4.24,60.82-4.13,135.22-24.9,221.12-1.42,5.9-6.7,10.05-12.77,10.05h-72.92Z"/><path class="cls-1" d="M5704.52,345.34c125.09,0,207.33,109.99,137.43,399.19h-72.92c10.35-44.22,31.93-123.18,22-237.95-9.06-51.78-37.97-102.69-88.02-120.38-14.35-3.76-28.87-5.83-43.33-5.83-38.6,0-76.64,14.72-108.97,51.13-5.48,15.67-2.59,313.03-2.59,313.03h-102.61c17.11-17.22,21.2-15.73,26.24-43.79,6.16-108.93,.43-303.1,.43-303.1,0,0-10.28-32.52-29.26-45.46l102.61-1.14v27.29s1.69,1.45,9.28,1.45c3.92,0,9.4-.39,17.04-1.56,46.26-21.11,91.75-32.87,132.67-32.87m0-26.27c-40.91,0-85.52,10.24-132.76,30.46-.37-6.47-3.12-12.6-7.75-17.18-4.92-4.87-11.56-7.59-18.47-7.59-.1,0-.19,0-.29,0l-102.61,1.14c-11.47,.13-21.53,7.68-24.85,18.66-3.32,10.98,.87,22.85,10.35,29.31,7.09,4.84,14.54,19.62,17.92,28.54,.76,28.12,4.98,196.98-.42,295.21-1.61,8.59-2.79,11.99-3.52,13.31-.63,1.15-2.69,3.1-6.27,6.45-2.42,2.27-5.44,5.09-8.95,8.62-7.48,7.53-9.7,18.81-5.62,28.61,4.08,9.8,13.64,16.18,24.25,16.18h102.61c7.01,0,13.73-2.8,18.67-7.78,4.93-4.98,7.67-11.73,7.6-18.74,0-.7-.69-71.3-.75-144.51-.1-107.52,1.17-144.1,2.02-156.5,23.84-24.3,52.08-36.62,84.03-36.62,11.42,0,23.39,1.57,35.57,4.68,34.86,12.84,60.83,49.59,69.71,98.68,8.65,102.11-8.79,175.18-19.22,218.9-.81,3.38-1.57,6.59-2.29,9.64-1.83,7.81,.01,16.03,4.99,22.31,4.98,6.28,12.56,9.95,20.58,9.95h72.92c12.13,0,22.68-8.31,25.53-20.1,21.08-87.22,29.57-162.96,25.23-225.12-4.17-59.83-20.22-107.86-47.68-142.76-32.82-41.7-81.41-63.74-140.51-63.74h0Z"/></g><g><path d="M3857.04,766.71c-25.3,0-41.89-1.65-45.8-2.09-10.06-.01-94.3-1.54-179.09-46.95-49.68-26.61-89.99-63.14-119.8-108.58-36.78-56.07-57.51-125.81-61.61-207.28,0-.13-.01-.26-.01-.39-1.6-77.25,14.98-144.96,49.26-201.24,28.56-46.88,69.54-86.12,121.81-116.64,89.03-51.98,188.88-66.4,240.47-70.37,.34-.03,.67-.04,1.01-.04h271.12c7.25,0,13.13,5.88,13.13,13.13v105.99c0,5.35-3.25,10.17-8.21,12.18-1.6,.65-3.27,.96-4.92,.96-3.49,0-6.92-1.39-9.44-4-48.33-49.94-140.12-67.74-209.9-67.74-19.2,0-37,1.35-51.48,3.91-.27,.05-.54,.09-.81,.12-178.25,20.11-280.59,137.69-280.91,322.62,24.15,185.93,107.93,285.96,256.12,305.77,9.21,.86,18.49,1.29,27.57,1.29h.03c64.14,0,124.97-20.96,180.79-62.29,39.26-29.07,64.03-59.49,73.43-72.07,.74-137.15,.27-318.88,.2-345.25-2.39-4.12-8.72-13.6-20.28-22.04-4.59-3.35-6.51-9.28-4.74-14.69,1.76-5.4,6.8-9.06,12.48-9.06,0,0,357.04,.37,357.04,.37,5.67,0,10.7,3.65,12.47,9.04s-.13,11.31-4.7,14.67l-52.07,38.31c-2.24,1.65-4.94,2.54-7.71,2.55l-190,1.04v107.74c.09,1.5,.09,2.98,.1,4.41,0,.12,0,.24,0,.37,52.41-22.86,100.57-34.45,143.21-34.45,26.89,0,51.38,4.71,72.79,13.99,22.52,9.76,41.75,24.63,57.13,44.17,26.1,33.16,41.19,79.76,44.84,138.49,3.83,61.68-4.96,137.35-26.12,224.92-1.42,5.9-6.7,10.05-12.77,10.05h-72.92c-4.01,0-7.8-1.83-10.29-4.97s-3.41-7.25-2.5-11.15c.71-3.03,1.47-6.22,2.27-9.58,10.64-44.58,28.43-119.14,19.49-223.67-9.66-54.34-39.09-95.21-78.85-109.52-13.47-3.49-26.74-5.26-39.46-5.26-37.16,0-69.69,14.82-96.75,44.07-3.13,26.68-2.72,199.77-1.68,306.83,.03,3.51-1.33,6.88-3.8,9.37-2.47,2.49-5.83,3.89-9.33,3.89h-102.61c-5.3,0-10.09-3.19-12.13-8.09-2.04-4.9-.93-10.54,2.81-14.3,3.34-3.36,6.14-5.98,8.61-8.29,8-7.48,10.15-9.5,12.74-21.87-99.37,53.25-204.31,61.6-260.23,61.6Z"/><path class="cls-1" d="M4134.41,26.27v105.99c-51.93-53.66-148.17-71.74-219.34-71.74-20.57,0-39.06,1.51-53.76,4.11-164.26,18.54-292.57,122.3-292.57,336.52,14.5,112.69,58.02,290.09,267.77,317.98,9.93,.93,19.6,1.38,29.08,1.38,159.32,0,254.52-125.25,267.33-143.17,.84-149.63,.21-352.84,.21-352.84,0,0-7.07-15.81-25.66-29.38l357.03,.37-52.07,38.31-203.06,1.12v121.24c.52,6.94-1.82,18.95,9.41,18.95,1.27,0,2.71-.15,4.35-.48,51.35-22.97,99.97-35.44,142.68-35.44,130.38,0,205.74,116.27,135.86,405.35h-72.92c10.35-44.22,31.93-123.18,22.01-237.95-9.06-51.78-37.97-102.69-88.02-120.38-14.35-3.76-28.87-5.83-43.33-5.83-38.6,0-76.64,14.72-108.97,51.13-5.48,15.67-2.59,313.03-2.59,313.03h-102.61c17.11-17.22,21.2-15.73,26.24-43.79,.14-5.74,.27-12.14,.4-19.1-101.9,62.14-214.12,71.94-274.83,71.94-28.01,0-45.07-2.09-45.07-2.09,0,0-.2,0-.59,0-15.47,0-330.1-4.27-347.52-350.34-6.69-323.56,312.4-368.19,399.43-374.88h271.12m0-26.27h-271.12c-.67,0-1.34,.03-2.01,.08-52.72,4.06-154.79,18.82-246.09,72.12-54.17,31.63-96.7,72.39-126.41,121.15-35.61,58.45-52.83,128.55-51.18,208.35,0,.26,.01,.52,.03,.78,4.22,83.84,25.66,155.78,63.74,213.83,31.03,47.3,72.94,85.3,124.58,112.96,85.84,45.97,171.35,48.41,184.56,48.5,5.26,.56,22.02,2.09,46.53,2.09,29.53,0,75.6-2.3,127.4-13.24,33.61-7.1,65.55-16.91,95.55-29.34-1.61,5.61-1.35,11.73,.99,17.35,4.08,9.8,13.64,16.18,24.25,16.18h102.61c7.01,0,13.73-2.8,18.67-7.78,4.93-4.98,7.67-11.73,7.6-18.74,0-.7-.69-71.3-.75-144.51-.1-107.52,1.17-144.1,2.02-156.5,23.84-24.3,52.08-36.62,84.03-36.62,11.42,0,23.39,1.58,35.57,4.68,34.86,12.84,60.83,49.59,69.71,98.68,8.65,102.11-8.79,175.18-19.22,218.9-.81,3.38-1.57,6.59-2.29,9.64-1.83,7.81,.01,16.03,4.99,22.31s12.56,9.95,20.58,9.95h72.92c12.13,0,22.68-8.31,25.53-20.1,21.47-88.85,30.38-165.83,26.47-228.82-3.82-61.44-19.84-110.5-47.62-145.8-16.75-21.28-37.68-37.46-62.23-48.1-23.07-10-49.31-15.07-78.01-15.07-39.4,0-83.1,9.39-130.17,27.95v-79.83l176.94-.97c5.55-.03,10.95-1.82,15.42-5.11l52.07-38.31c9.14-6.72,12.93-18.56,9.4-29.34-3.53-10.78-13.59-18.08-24.94-18.09l-357.03-.37h-.03c-11.36,0-21.44,7.31-24.97,18.11-3.53,10.81,.29,22.67,9.48,29.38,7.49,5.47,12.29,11.43,14.9,15.24,.1,36.25,.5,205.77-.18,336.95-10.06,12.91-33.37,40.27-68.13,66.01-53.51,39.62-111.71,59.71-172.97,59.71-8.61,0-17.4-.41-26.12-1.21-187.6-25.2-229.52-179.08-244.46-293.55,.78-242.21,168.92-297.42,269.24-308.74,.54-.06,1.09-.14,1.63-.24,13.73-2.43,30.74-3.71,49.19-3.71,67.09,0,154.98,16.74,200.46,63.74,5.05,5.22,11.9,8,18.88,8,3.31,0,6.65-.63,9.85-1.92,9.92-4.01,16.42-13.65,16.42-24.35V26.27c0-14.51-11.76-26.27-26.27-26.27h0Z"/></g><g><path d="M4599.24,757.66c-5.62,0-10.62-3.58-12.43-8.89-1.81-5.32-.04-11.2,4.41-14.64,9.66-7.46,14.63-19.67,16.11-23.86,.29-25.9,3.22-290.32,3.32-319.5-2.35-9.01-16.32-15.67-21.19-17.34-6.11-2.04-9.82-8.2-8.79-14.56,1.03-6.36,6.55-11.02,12.99-11.02h77.54c6.38,0,11.71,3.93,12.81,10.2,1.2,4.06,4.27,4.08,5.32,4.08h.02c.32,0,.66-.01,1-.04,35.43-22.87,74.27-34.46,115.5-34.46,71.23,0,124.21,34.57,126.43,36.04,3.67,2.43,5.88,6.54,5.88,10.95v83.37c0,6.1-4.2,11.4-10.15,12.79-1,.23-2,.35-2.99,.35-4.91,0-9.52-2.76-11.77-7.32,0,0-20.13-40.75-20.16-40.81-9.15-19.21-44.16-32.06-96.07-35.27-.05,0-.1,0-.16-.01-5.52-.41-10.86-.61-15.9-.61-61.72,0-65.22,30.32-65.39,32.75v324.67c0,7.25-5.88,13.13-13.13,13.13h-103.2Zm116.34-337.93s0-.2,0-.2v.19h0Z"/><path class="cls-1" d="M4805.86,340.76c68.09,0,119.18,33.86,119.18,33.86v83.37l-20.08-40.64c-11.16-23.43-47.98-39.08-107.12-42.73-5.99-.44-11.6-.65-16.86-.65-78.04,0-78.53,45.59-78.53,45.59v324.96h-103.2c15.51-11.97,21.2-32.09,21.2-32.09,0,0,3.35-300.69,3.35-323-3.35-19.53-30.12-28.45-30.12-28.45h77.54s3.12,14.28,18.15,14.28c1.77,0,3.72-.2,5.83-.64,38.31-25.4,76.61-33.86,110.66-33.86m0-26.27h0c-40.27,0-78.38,10.4-113.48,30.94-4.83-6.57-12.6-10.72-21.17-10.72h-77.54c-12.97,0-24.22,9.4-26.18,22.22-1.96,12.79,5.47,25.03,17.79,28.95,4.7,1.69,10.31,5.25,12.23,7.65-.23,39.03-2.89,279.02-3.28,314.31-1.82,4.48-5.59,11.7-11.03,15.9-8.9,6.87-12.44,18.64-8.81,29.27s13.62,17.79,24.86,17.79h103.2c14.51,0,26.27-11.76,26.27-26.27V420.73c.23-1.17,1.23-4.79,5.33-8.55,8.41-7.7,25.07-11.94,46.93-11.94,4.71,0,9.73,.19,14.93,.58,.1,0,.21,.01,.31,.02,25.88,1.6,47.76,5.78,63.3,12.08,11.21,4.55,19.13,10.28,21.72,15.73,.05,.11,.11,.23,.17,.34l20.08,40.64c4.5,9.11,13.73,14.64,23.55,14.64,1.98,0,3.99-.22,5.98-.69,11.89-2.78,20.3-13.37,20.3-25.58v-83.37c0-8.81-4.41-17.03-11.76-21.9-2.35-1.56-58.54-38.22-133.69-38.23h0Z"/></g><g><path d="M6602.33,754.93c-5.12,0-9.78-2.98-11.93-7.63-2.15-4.65-1.39-10.13,1.94-14.03,5.31-6.23,13.53-17.19,16.22-23.24,2.41-25.86,1.12-342.52-.37-553.94-2.4-4.36-7.22-11.58-13.19-15.65,0,0-29.84,.5-29.92,.5-5.15,0-9.83-3.01-11.96-7.71-2.16-4.77-1.29-10.36,2.23-14.24,2.5-2.76,24.96-27.21,44.46-36.96,1.82-.91,3.83-1.39,5.87-1.39h80.89c7.25,0,13.13,5.88,13.13,13.13V741.8c0,7.25-5.88,13.13-13.13,13.13h-84.24Z"/><path class="cls-1" d="M6686.56,93.77V741.8h-84.24s15.06-17.65,18.97-28.25c3.9-10.6,0-560.65,0-560.65,0,0-8.37-18.41-22.87-25.66l-33.34,.56s22.75-25.1,40.6-34.03h80.89m0-26.27h-80.89c-4.08,0-8.1,.95-11.75,2.77-21.64,10.82-45.65,36.94-48.32,39.89-7.03,7.76-8.78,18.95-4.46,28.49,4.26,9.4,13.63,15.42,23.92,15.42,.15,0,.29,0,.44,0l24.8-.41c1.69,1.76,3.37,3.98,4.75,6.11,1.44,204.86,2.69,508.17,.55,546.74-2.47,4.35-8.28,12.39-13.28,18.24-6.65,7.8-8.17,18.75-3.87,28.06,4.29,9.31,13.61,15.27,23.85,15.27h84.24c14.51,0,26.27-11.76,26.27-26.27V93.77c0-14.51-11.76-26.27-26.27-26.27h0Z"/></g><g><path d="M5152.03,757.73c-54.2,0-99.18-11.55-133.69-34.32-28.31-18.68-44.26-40.76-56.98-60-16.03-23.51-50.35-88.41-24.66-184.76,15.12-56.69,77.92-114.07,168.7-114.07h1.4c.28,0,.56,.02,.84,.04,48.08,3.38,83.51,14.79,105.3,33.91,20.35,17.86,24.62,38.28,24.62,52.27,0,5.56-3.5,10.52-8.75,12.38-1.44,.51-2.92,.76-4.39,.76-3.89,0-7.66-1.73-10.21-4.86-14.88-18.35-44.49-28.45-83.38-28.45-6.35,0-13.04,.26-19.89,.78-47.46,3.59-79.06,43.94-86.93,62.92-3.73,8.99-10.07,41.35-4.63,78.95,4.55,31.46,18.94,74.88,61.66,103.1,21.27,14.05,43.89,21.18,67.24,21.18,32.58,0,66.77-13.52,101.63-40.18,9.03-6.91,26.19-30.76,36.44-68.17,8.02-29.28,13.81-74.71-4.18-124.79-5.31-14.78-14.55-29.33-26.72-42.1-54.61-57.25-99.11-64.59-131.78-64.59-12.93,0-25.45,1.23-37.57,2.43-11.78,1.16-22.9,2.26-34.06,2.26-5.91,0-11.09-3.95-12.66-9.64s.86-11.74,5.93-14.77c27.39-16.34,64.42-25.34,104.27-25.34,61.85,0,121.69,20.68,160.07,55.32,67.35,60.79,71.86,130.31,70.72,196.31-.68,39.09-22.36,85.89-56.58,122.14-29.9,31.67-82.69,69.74-164.39,71.25-2.46,.05-4.94,.07-7.36,.07Z"/><path class="cls-1" d="M5149.58,325.78c54.94,0,113.31,17.68,151.26,51.93,63.04,56.9,67.5,122.18,66.39,186.33s-70.85,177.96-208.08,180.48c-2.41,.04-4.77,.07-7.12,.07-118.86,0-158.43-56.23-179.76-88.5-23.99-35.15-43.62-96.24-22.87-174.05,13.32-49.96,70.26-104.33,156-104.32,.43,0,.88,0,1.31,0,103.2,7.25,117.71,50.21,117.71,73.08-14.78-18.23-43.74-33.32-93.59-33.32-6.59,0-13.55,.26-20.88,.82-53.45,4.05-88.59,48.12-98.07,70.99s-25.8,140.08,61.92,198.04c25.79,17.04,51.08,23.35,74.48,23.35,49.38,0,90.31-28.12,109.61-42.88,26.08-19.94,71.38-111.14,36.64-207.84-6.28-17.47-16.77-33.29-29.58-46.72-54.76-57.41-100.92-68.66-141.28-68.66-26.04,0-49.66,4.68-71.63,4.68,26.42-15.76,61.23-23.48,97.54-23.48m0-26.27s0,0,0,0c-20.44,0-40.13,2.2-58.51,6.53-19.59,4.62-37.26,11.57-52.49,20.66-10.15,6.06-15.01,18.15-11.86,29.54,.87,3.14,2.28,6.02,4.13,8.54-56.78,21.59-95.03,66.23-106.83,110.48-10.48,39.3-12.43,77.81-5.81,114.47,6.83,37.81,21.29,64.89,32.26,81,9.74,14.73,27.8,41.96,60.65,63.64,17.25,11.38,36.98,20.21,58.65,26.24,24.45,6.8,52.13,10.25,82.27,10.25,2.5,0,5.06-.02,7.6-.07,35.97-.66,69.9-8.3,100.85-22.69,27.37-12.73,51.88-30.45,72.86-52.67,36.37-38.53,59.43-88.7,60.16-130.93,.57-33.04-.25-68.44-10.11-103.46-11.23-39.89-32.47-73.52-64.93-102.82-40.72-36.75-103.85-58.7-168.87-58.7h0Zm74.84,177.55c2.93,0,5.9-.49,8.77-1.51,10.49-3.72,17.49-13.64,17.49-24.76,0-5.44-.55-10.8-1.62-16.02,9.37,10.58,16.51,22.28,20.74,34.07,16.83,46.86,11.4,89.42,3.88,116.88-9.67,35.3-25.57,56.48-31.75,61.21-32.52,24.87-64.03,37.48-93.66,37.48-21.02,0-40.65-6.22-60-19-31.03-20.5-49.84-52.14-55.9-94.02-5.09-35.19,1.07-65.54,3.76-72.04,3.46-8.34,12.67-21.69,25.46-32.74,10.6-9.16,27.94-20.43,50.34-22.12,6.52-.49,12.88-.74,18.9-.74,47.03,0,66.04,14.78,73.18,23.59,5.09,6.27,12.64,9.73,20.41,9.73h0Z"/></g><g><path d="M7443.33,757.86c-.47,0-.93,0-1.39-.01-123.89-1.99-156.68-37.1-160.01-41.1-2.28-2.74-3.35-6.29-2.97-9.83,.39-3.54,2.2-6.78,5.02-8.96l46.12-35.7c2.33-1.8,5.16-2.75,8.04-2.75,1.12,0,2.26,.14,3.37,.44,3.96,1.05,7.2,3.88,8.76,7.66,11.72,28.26,46.49,38.32,75.12,38.32h.01c21.52,0,42.18-5.28,58.18-14.87,11.53-6.91,25.91-19.41,29.01-39.74,9.71-63.72-106.76-84.84-110.36-85.47-7.17-1.1-133.78-21.77-138.94-102.88-2.56-40.28,7.03-73.03,28.52-97.32,25.23-28.52,66.33-44.65,122.17-47.94,6.77-.4,13.5-.6,20-.6,85.43,0,119.73,34.56,121.14,36.04,4.89,5.07,4.91,13.09,.04,18.18l-35.7,37.39c-2.49,2.61-5.93,4.06-9.5,4.06-.51,0-1.02-.03-1.54-.09-4.1-.48-7.73-2.86-9.81-6.43-13.74-23.55-30.94-39.23-70.28-39.23h-.32c-11.43,.03-21.94,2.39-30.38,6.83-19.83,10.44-49.84,35.6-28.07,86.84,9.92,23.35,50.81,33.64,94.09,44.54,50.59,12.74,102.9,25.91,127.7,63.83,20.8,27.19,25.66,60.92,13.33,92.62-8.72,22.41-25.81,42.7-49.45,58.67-25.66,17.35-58.42,29.55-97.36,36.25-4.6,.79-9.63,1.21-14.54,1.21h0Z"/><path class="cls-1" d="M7433.98,330.25c80.83,0,111.69,32.02,111.69,32.02l-35.7,37.39c-13.85-23.75-34.14-45.75-81.63-45.74-.11,0-.23,0-.35,0-12.57,.03-25.35,2.49-36.47,8.35-33.13,17.44-55.71,52.59-34.04,103.6,25.29,59.51,180,43.88,223.14,110.83,42.45,54.9,10.72,143.65-124.97,167.02-3.97,.68-8.24,1.02-12.32,1.02-.39,0-.79,0-1.18,0-121.44-1.95-150.13-36.37-150.13-36.37l46.12-35.7c13.02,31.38,49.7,46.42,87.26,46.42,46.14,0,93.62-22.71,100.18-65.76,11.9-78.1-121.24-100.41-121.24-100.41,0,0-123.35-18.68-127.94-90.74-5.21-81.82,43.14-125.7,138.35-131.31,6.7-.39,13.1-.58,19.22-.58m0-26.27h0c-6.76,0-13.74,.21-20.77,.62-59.45,3.5-103.6,21.12-131.23,52.35-23.89,27.01-34.58,62.96-31.79,106.85,1.77,27.85,17.34,66.91,81.42,94.81,32.8,14.28,64.74,19.6,68.48,20.19,1.84,.33,31.46,5.71,58.73,19.05,45.27,22.14,41.9,44.23,40.8,51.49-1.87,12.27-9.53,22.51-22.78,30.45-13.79,8.26-32.54,13-51.43,13-23.28,0-53.75-7.92-63-30.22-3.14-7.56-9.62-13.22-17.53-15.32-2.22-.59-4.49-.88-6.74-.88-5.76,0-11.43,1.9-16.08,5.5l-46.12,35.7c-5.64,4.37-9.26,10.83-10.03,17.92s1.37,14.19,5.93,19.66c6.08,7.29,42.83,43.78,169.89,45.82,.53,0,1.07,.01,1.6,.01,5.66,0,11.46-.48,16.78-1.4,40.79-7.03,75.27-19.92,102.48-38.32,25.85-17.48,44.64-39.89,54.33-64.79,6.93-17.83,9.14-36.95,6.37-55.3-2.67-17.73-10-34.89-21.22-49.68-12.79-19.34-32.98-34.59-61.68-46.59-23.15-9.68-48.77-16.14-73.54-22.38-36.49-9.19-77.84-19.6-85.21-36.95-16.78-39.48,2.76-59.9,22.1-70.08,6.58-3.46,14.98-5.3,24.29-5.32h.29c33.33,0,46.85,11.99,58.94,32.71,4.16,7.13,11.43,11.89,19.62,12.85,1.03,.12,2.05,.18,3.07,.18,7.13,0,14.01-2.91,19-8.13l35.7-37.39c9.73-10.19,9.69-26.23-.08-36.37-3.95-4.1-41.19-40.06-130.6-40.06h0Z"/></g></g></g></svg>