<svg width="2232" height="1972" viewBox="0 0 2232 1972" fill="none" xmlns="http://www.w3.org/2000/svg">
<path d="M483.821 132.707C739.699 325.462 1014.97 716.236 1116 925.939V1479.82C1116 1468.04 1111.47 1481.36 1101.7 1510.06C1048.97 1665.46 842.998 2271.97 372.012 1787.11C124.015 1531.82 238.824 1276.54 690.246 1199.46C431.997 1243.55 141.662 1170.69 62.0077 885.066C39.06 802.9 0 296.794 0 228.439C0 -113.963 299.193 -6.33923 483.821 132.707ZM1748.18 132.707C1492.3 325.462 1217.03 716.236 1116 925.939V1479.82C1116 1468.04 1120.53 1481.36 1130.3 1510.06C1183.03 1665.46 1389 2271.97 1859.99 1787.11C2107.98 1531.82 1993.18 1276.54 1541.75 1199.46C1800 1243.55 2090.34 1170.69 2169.99 885.066C2192.94 802.9 2232 296.794 2232 228.439C2232 -113.963 1932.84 -6.33923 1748.18 132.707Z" fill="white"/>
</svg>
