<?xml version="1.0" encoding="UTF-8"?><svg id="Layer_2" xmlns="http://www.w3.org/2000/svg" viewBox="0 0 256 198.17"><defs><style>.cls-1{fill:#fff;}</style></defs><g id="Layer_1-2"><path class="cls-1" d="M216.86,16.6c-16.57-7.75-34.29-13.39-52.81-16.6-2.28,4.11-4.93,9.65-6.77,14.05-19.69-2.96-39.2-2.96-58.53,0-1.83-4.4-4.55-9.93-6.85-14.05-18.54,3.21-36.28,8.86-52.86,16.64C5.62,67.15-3.44,116.4,1.09,164.96c22.17,16.56,43.65,26.61,64.78,33.19,5.22-7.18,9.87-14.81,13.87-22.85-7.63-2.9-14.94-6.48-21.85-10.63,1.83-1.36,3.62-2.78,5.36-4.24,42.12,19.7,87.89,19.7,129.51,0,1.75,1.46,3.54,2.88,5.36,4.24-6.93,4.17-14.26,7.75-21.89,10.65,4.01,8.02,8.64,15.67,13.87,22.85,21.14-6.58,42.65-16.64,64.82-33.21,5.32-56.29-9.08-105.09-38.06-148.36ZM85.47,135.09c-12.64,0-23.01-11.8-23.01-26.18s10.15-26.2,23.01-26.2,23.24,11.8,23.01,26.2c.02,14.38-10.15,26.18-23.01,26.18Zm85.05,0c-12.64,0-23.01-11.8-23.01-26.18s10.15-26.2,23.01-26.2,23.24,11.8,23.01,26.2c0,14.38-10.15,26.18-23.01,26.18Z"/></g></svg>