<?xml version="1.0" encoding="UTF-8"?><svg id="Layer_2" xmlns="http://www.w3.org/2000/svg" viewBox="0 0 408.78 408.79"><defs><style>.cls-1{fill:#fff;}</style></defs><g id="Layer_1-2"><path class="cls-1" d="M353.7,0H55.09C24.66,0,0,24.66,0,55.08V353.7c0,30.42,24.66,55.08,55.08,55.08H202.36l.25-146.08h-37.95c-4.93,0-8.93-3.99-8.95-8.92l-.18-47.09c-.02-4.96,4-8.99,8.96-8.99h37.88v-45.5c0-52.8,32.25-81.55,79.35-81.55h38.65c4.95,0,8.95,4.01,8.95,8.96v39.7c0,4.94-4.01,8.95-8.95,8.96h-23.72c-25.61,.01-30.58,12.18-30.58,30.05v39.39h56.29c5.36,0,9.52,4.68,8.89,10.01l-5.58,47.09c-.53,4.51-4.36,7.9-8.89,7.9h-50.45l-.25,146.08h87.63c30.42,0,55.08-24.66,55.08-55.08V55.08c0-30.42-24.66-55.08-55.09-55.08Z"/></g></svg>