<?xml version="1.0" encoding="UTF-8"?><svg id="Layer_2" xmlns="http://www.w3.org/2000/svg" viewBox="0 0 169.06 169.06"><defs><style>.cls-1{fill:#fff;}</style></defs><g id="Layer_1-2"><g><path class="cls-1" d="M122.41,0H46.65C20.93,0,0,20.93,0,46.65V122.41c0,25.73,20.93,46.65,46.65,46.65H122.41c25.73,0,46.66-20.93,46.66-46.65V46.65c0-25.72-20.93-46.65-46.66-46.65Zm31.66,122.41c0,17.46-14.2,31.65-31.66,31.65H46.65c-17.45,0-31.65-14.2-31.65-31.65V46.65c0-17.45,14.2-31.65,31.65-31.65H122.41c17.45,0,31.66,14.2,31.66,31.65V122.41h0Z"/><path class="cls-1" d="M84.53,40.97c-24.02,0-43.56,19.54-43.56,43.56s19.54,43.56,43.56,43.56,43.56-19.54,43.56-43.56-19.54-43.56-43.56-43.56Zm0,72.12c-15.75,0-28.56-12.81-28.56-28.56s12.81-28.56,28.56-28.56,28.56,12.81,28.56,28.56c0,15.75-12.81,28.56-28.56,28.56Z"/><path class="cls-1" d="M129.92,28.25c-2.89,0-5.73,1.17-7.77,3.22-2.05,2.04-3.23,4.88-3.23,7.78s1.18,5.73,3.23,7.78c2.04,2.04,4.88,3.22,7.77,3.22s5.73-1.18,7.78-3.22c2.05-2.05,3.22-4.89,3.22-7.78s-1.17-5.74-3.22-7.78c-2.04-2.05-4.88-3.22-7.78-3.22Z"/></g></g></svg>