<?xml version="1.0" encoding="UTF-8"?><svg id="Layer_2" xmlns="http://www.w3.org/2000/svg" viewBox="0 0 468.45 42.33"><defs><style>.cls-1{fill:#bfbfbf;stroke-width:0px;}</style></defs><g id="Chronicles"><g id="s"><path class="cls-1" d="M463.73,21.07h4.17c-.6-.65-3.45-2.05-8.03-2.16s-9.14,1.76-9.14,4.86c0,3.1,4,3.15,10.52,7.79s1.6,10.23-1.99,9.97-4.94-2.86-4.86-4.53h-4.11s-.3,5.35,8.97,5.33,9.52-4.96,9.06-7.4c-1.57-6.87-17.56-7.4-12.4-13.33,4.06-3.74,7.81-.53,7.81-.53Z"/></g><g id="e"><path class="cls-1" d="M427.71,30.33s4.75,1.1,12.06-2.67c7.31-3.77,4.46-9.86-4.12-8.69-3.75.44-10.41,4.16-12.87,8.22-9.33,14.71,14.28,20.65,20.21,8.91h-4.09s-2.62,5.46-8.17,4.97-8.52-9.63-1.62-16.2c6.9-6.57,11.37-4.7,10.2-.8-1.69,4.83-11.6,6.26-11.6,6.26Z"/></g><g id="l"><path class="cls-1" d="M418.11,42.33c-4.99,0-6.31-3.97-6.31-8.77V10.29h4.27v23.19c0,1.84.1,7.44,4.54,8.83l-2.5.02Z"/></g><g id="c"><path class="cls-1" d="M403.1,21.78h3.98c-.74-3.72-17.34-6.14-21.53,6.56-2.8,11.96,5.07,13.99,9.6,13.99s9.13-1.25,10.57-3.61h-3.75c-.78.74-5.66,3.65-10.17,1.01-1.31-.82-3.49-3.41-2.67-8.99.81-5.57,4.37-8.05,4.37-8.05,5.43-4.27,9.57-1.64,9.62-.92Z"/></g><g id="i"><path class="cls-1" d="M374.16,42.33v-23.5s4.27,0,4.27,0v21.17c0,1.84,1.8,2.34,1.8,2.34h-6.07Z"/></g><g id="n"><path class="cls-1" d="M368.2,42.33h-5.48c-1.52-.58-1.23-3.13-1.23-12.27,0-7.1-4.99-9.4-7.34-9.26-2.62,0-7.34,2.16-7.34,9.26,0,9.14.29,11.69-1.23,12.27h-5.48c.91-.18,1.61-.28,2.02-2.9.42-2.63.48-6.69.68-10.79.17-3.38,3.32-9.7,11.34-9.83s11.17,6.45,11.35,9.83c.2,4.1.26,8.16.68,10.79.41,2.62,1.11,2.72,2.02,2.9Z"/></g><g id="o"><path class="cls-1" d="M314.82,25.96h4.06s-3.31.97-2.03,3.67c1.28,2.71,6.77,1.21,6.81-4,.02-2.66-4.4-6.18-9.62-3.26s-7.11,7.15-6.11,11.65c2.05,9.17,19.87,11.7,25.32-1.02,2.73-5.96-2.37-14.8-10.52-17.67-4.75-2.18-12.37-1.6-12.37-1.6,0,0,14.68-3.78,24.29,6.92,4.45,4.95,4.32,10.78,1.08,15.64s-9.72,6.05-16.29,6.05c-3.92,0-12.04-.3-14.99-6.71-2.95-6.4,1.96-12.87,7.98-14.68s12.04.08,14.06,1.76c3.46,2.87.63,10.65-10.34,9.42-5.6-.92-3.46-6.17-1.34-6.17Z"/></g><g id="r"><path class="cls-1" d="M294.43,42.3c0-4.05-2.5-19.1,12.48-21.86-17.6-1.29-16.93,17.13-17.15,19.42-.22,2.28-1.8,2.47-1.8,2.47l6.48-.03Z"/></g><g id="h"><path class="cls-1" d="M284.51,42.33h-5.48c-1.52-.58-1.23-3.13-1.23-12.27,0-7.1-4.99-9.4-7.33-9.26-2.62,0-7.34,2.16-7.34,9.26,0,9.14.29,11.69-1.23,12.27h-5.48c.91-.18,1.61-.28,2.02-2.9.18-1.16.38-3.58.38-5.31V10.29h4.27v11.04c1.77-1.44,4.19-2.47,7.38-2.52,8.02-.13,11.17,6.45,11.34,9.83.2,4.1.26,8.16.68,10.79.41,2.62,1.11,2.72,2.02,2.9Z"/></g><g id="C"><path class="cls-1" d="M252.18,9.55h4.21C256.77,4.25,252.51.04,244.56,0s-20.3,1.6-25.44,17.61c-3.13,9.74,3.5,18.93,8.58,21.81s15.53,3.75,21.39,2.04,6.52-6.84,6.52-6.84l-4.2-.02c-.22,3.71-2.44,6.71-13.2,6.2s-18.71-13.87-14.4-24.58,12.29-15.31,20.37-14.96,8.01,8.28,8.01,8.28Z"/></g></g><g id="Ancient"><g id="t"><path class="cls-1" d="M188.95,42.31l-2.5.02c-4.99,0-6.31-3.97-6.31-8.77v-13.44c-1.53.72-1.85,1.6-1.87,1.83h-4.06c.92-1.97,3.27-2.95,5.93-3.35v-8.31h4.27v8.06c3.6.08,6.7.76,6.64.98-2.76-.29-4.94-.32-6.64-.18v14.33c0,1.84.11,7.44,4.54,8.83Z"/></g><g id="n-2"><path class="cls-1" d="M175.55,42.33h-5.48c-1.52-.58-1.23-3.13-1.23-12.27,0-7.1-4.99-9.4-7.34-9.26-2.62,0-7.34,2.16-7.34,9.26,0,9.14.29,11.69-1.23,12.27h-5.48c.91-.18,1.61-.28,2.02-2.9.42-2.63.48-6.69.68-10.79.17-3.38,3.32-9.7,11.34-9.83s11.17,6.45,11.35,9.83c.2,4.1.26,8.16.68,10.79.41,2.62,1.11,2.72,2.02,2.9Z"/></g><g id="e-2"><path class="cls-1" d="M129.84,30.33s4.75,1.1,12.06-2.67,4.46-9.86-4.12-8.69c-3.75.44-10.41,4.16-12.87,8.22-9.33,14.71,14.28,20.65,20.21,8.91h-4.09s-2.62,5.46-8.17,4.97-8.52-9.63-1.62-16.2c6.9-6.57,11.37-4.7,10.2-.8-1.69,4.83-11.6,6.26-11.6,6.26Z"/></g><g id="i-2"><path class="cls-1" d="M113.11,42.33v-23.5s4.27,0,4.27,0v21.17c0,1.84,1.8,2.34,1.8,2.34h-6.07Z"/></g><g id="c-2"><path class="cls-1" d="M104.98,21.77h3.98c-.74-3.72-17.34-6.14-21.53,6.56-2.8,11.96,5.07,13.99,9.6,13.99s9.13-1.25,10.57-3.61h-3.75c-.78.74-5.66,3.65-10.17,1.01-1.31-.82-3.49-3.41-2.67-8.99s4.37-8.05,4.37-8.05c5.43-4.27,9.57-1.64,9.62-.92Z"/></g><g id="n-3"><path class="cls-1" d="M85.22,42.33h-5.48c-1.52-.58-1.23-3.13-1.23-12.27,0-7.1-4.99-9.4-7.34-9.26-2.62,0-7.34,2.16-7.34,9.26,0,9.14.29,11.69-1.23,12.27h-5.48c.91-.18,1.61-.28,2.02-2.9.42-2.63.48-6.69.68-10.79.17-3.38,3.32-9.7,11.34-9.83s11.17,6.45,11.35,9.83c.2,4.1.26,8.16.68,10.79.41,2.62,1.11,2.72,2.02,2.9Z"/></g><g id="A"><path class="cls-1" d="M41.49,19.48c2.89-.49,6-.77,9.34-.8-1.25-.14-4.85-.6-9.87-.1C35.36,8.92,30.48,0,30.48,0h-4.16C9.13,35.93,3.79,41.19,0,42.33h7.18c.06-.07.12-.15.19-.23,3.32-3.99,11.38-16.63,29.02-21.49,4.37,8.44,9.14,16.74,13.23,21.72h7.18c-1.97-.59-9.01-12.02-15.31-22.85ZM16.22,28.39c4.46-7.92,8.86-16.94,12.18-24.02,2.11,4.48,4.65,9.75,7.36,15.03-5.74,1.23-12.56,3.82-19.54,8.99Z"/></g></g></svg>