<svg width="2495" height="1752" viewBox="0 0 2495 1752" fill="none" xmlns="http://www.w3.org/2000/svg">
<path d="M1033.46 1749.22C558.655 1740.48 396.487 1732.62 296.809 1712.08C229.371 1698.44 170.766 1668.14 127.796 1624.2C94.5854 1590.94 68.1742 1540.2 47.6836 1469.8C30.1069 1411.15 23.2613 1362.35 13.5016 1243.15C-1.43854 974.14 -5.00013 754.2 13.5016 508.451C28.7655 372.741 36.1662 211.637 137.556 117.648C185.429 73.6604 241.119 45.3528 303.655 33.6504C401.344 15.1024 817.541 0.439789 1248.4 0.439789C1678.29 0.439789 2095.41 15.1024 2193.19 33.6504C2271.31 48.313 2344.58 92.2546 2387.6 148.916C2480.11 294.432 2481.73 475.379 2491.11 616.917C2495 684.356 2495 1067.3 2491.11 1134.73C2476.5 1358.42 2464.75 1437.56 2431.54 1519.62C2411 1571.42 2393.47 1598.76 2363.13 1629.05C2315.54 1675.68 2254.87 1706.69 2189.21 1717.96C1778.34 1748.85 1429.44 1755.56 1033.46 1749.22ZM1662.65 850.409C1434.06 728.252 1215.19 614.975 991.457 497.72V1199.21C1226.89 1071.23 1475.09 953.973 1663.62 849.438L1662.65 850.409Z" fill="white"/>
</svg>
